<svg width="93" height="27" viewBox="0 0 93 27" fill="none" xmlns="http://www.w3.org/2000/svg">
<g clip-path="url(#clip0)">
<path d="M0 10.4163V12.4995H1.98768V10.4163H0Z" fill="#2D3440"/>
<path d="M9.41829 3.66311C8.15653 3.66311 7.13677 4.236 6.49725 5.06932H6.42812V0H4.78613V12.4997H6.42812V8.21161C6.42812 6.4929 7.49974 5.26029 9.07261 5.26029C10.5591 5.26029 11.4233 6.37138 11.4233 7.86439V12.4997H13.0653V7.56926C13.0653 5.19084 11.5961 3.66311 9.41829 3.66311Z" fill="#2D3440"/>
<path d="M21.5249 3.90628H17.6361V0.868164H15.9941V3.90628H14.4385V5.50347H15.9941V10.3471C15.9941 11.7359 16.7718 12.4998 18.1719 12.4998H21.5249V10.8853H18.5003C17.9472 10.8853 17.6361 10.5728 17.6361 10.0346V5.50347H21.5249V3.90628Z" fill="#2D3440"/>
<path d="M33.2547 3.68042C31.941 3.68042 30.9386 4.32276 30.3855 5.34705H30.3337C29.8324 4.34014 28.8991 3.68042 27.6201 3.68042C26.4793 3.68042 25.615 4.28804 25.0966 5.13873H25.0274V3.90612H23.4546V12.4996H25.0966V8.09004C25.0966 6.47549 25.9434 5.29497 27.2226 5.26025C28.4323 5.22553 29.141 6.09356 29.141 7.3956V12.4996H30.7831V7.95115C30.7831 6.02412 31.9238 5.26025 32.909 5.26025C34.1016 5.26025 34.8103 6.09356 34.8103 7.3956V12.4996H36.4522V7.222C36.4522 5.13873 35.2769 3.68042 33.2547 3.68042Z" fill="#2D3440"/>
<path d="M38.6777 10.2775C38.6777 11.6837 39.4728 12.4997 40.9419 12.4997H42.5666V10.9025H41.1839C40.6307 10.9025 40.3196 10.59 40.3196 10.0518V0H38.6777V10.2775Z" fill="#2D3440"/>
<path d="M23.3753 15.9364H23.3061C22.6655 15.0734 21.6267 14.4694 20.2414 14.4521C17.696 14.4176 15.8779 16.2988 15.8779 18.9566C15.8779 21.6318 17.7307 23.513 20.2241 23.4785C21.6438 23.4611 22.6655 22.8226 23.3061 21.9078H23.3753V23.2367H25.0031V14.6937H23.3753V15.9364ZM20.4664 21.8907C18.6657 21.8907 17.5229 20.5789 17.5229 18.9566C17.5229 17.3343 18.6657 16.0227 20.4664 16.0227C22.2153 16.0227 23.3582 17.3343 23.3582 18.9566C23.3582 20.5618 22.2153 21.8907 20.4664 21.8907Z" fill="#2D3440"/>
<path d="M35.752 17.8003C35.3537 15.8673 33.6395 14.4521 31.3886 14.4521C28.6701 14.4521 26.8521 16.4369 26.8521 18.9567C26.8521 21.4764 28.6701 23.4785 31.3886 23.4785C33.6395 23.4785 35.3537 22.0287 35.752 20.0785H34.0378C33.6915 21.1658 32.6699 21.9078 31.4059 21.9078C29.6397 21.9078 28.4968 20.5789 28.4968 18.9567C28.4968 17.3343 29.6397 16.0227 31.4059 16.0227C32.7218 16.0227 33.6915 16.7993 34.0378 17.8003H35.752Z" fill="#2D3440"/>
<path d="M44.5459 15.9364H44.4766C43.836 15.0734 42.797 14.4694 41.4117 14.4521C38.8664 14.4176 37.0483 16.2988 37.0483 18.9566C37.0483 21.6318 38.9011 23.513 41.3944 23.4785C42.8143 23.4611 43.836 22.8226 44.4766 21.9078H44.5459V23.2367H46.1735V14.6937H44.5459V15.9364ZM41.6369 21.8907C39.836 21.8907 38.6933 20.5789 38.6933 18.9566C38.6933 17.3343 39.836 16.0227 41.6369 16.0227C43.3858 16.0227 44.5285 17.3343 44.5285 18.9566C44.5285 20.5618 43.3858 21.8907 41.6369 21.8907Z" fill="#2D3440"/>
<path d="M55.52 16.0227H55.4508C54.8101 15.1079 53.7364 14.4694 52.3685 14.4521C49.8753 14.4176 48.0225 16.2988 48.0225 18.9739C48.0225 21.6317 49.8405 23.513 52.3859 23.4785C53.7364 23.4611 54.8101 22.8571 55.4334 21.9942H55.52V23.2367H57.1476V10.8105H55.52V16.0227ZM52.6111 21.9078C50.8101 21.9078 49.6674 20.5963 49.6674 18.9739C49.6674 17.3516 50.8101 16.0399 52.6111 16.0399C54.3599 16.0399 55.5026 17.3688 55.5026 18.9739C55.5026 20.5963 54.3599 21.9078 52.6111 21.9078Z" fill="#2D3440"/>
<path d="M63.3449 14.4521C60.713 14.4521 58.9121 16.4714 58.9121 18.9739C58.9121 21.4074 60.6091 23.4785 63.3794 23.4785C65.388 23.4785 66.9984 22.3912 67.5699 20.5789H65.8555C65.4748 21.3902 64.557 21.9078 63.4488 21.9078C61.8905 21.9078 60.7822 20.8724 60.661 19.5435H67.743C67.968 16.6958 66.1846 14.4521 63.3449 14.4521ZM63.3102 16.0227C64.6781 16.0227 65.6998 16.8684 65.9595 18.0937H60.6957C60.938 16.8856 61.9597 16.0227 63.3102 16.0227Z" fill="#2D3440"/>
<path d="M79.4129 14.4695C78.097 14.4695 77.0927 15.108 76.5386 16.1263H76.4866C75.9845 15.1253 75.0495 14.4695 73.7681 14.4695C72.6254 14.4695 71.7596 15.0735 71.2402 15.9192H71.171V14.6938H69.5952V23.2368H71.2402V18.8532C71.2402 17.2481 72.0887 16.0745 73.37 16.04C74.5819 16.0055 75.292 16.8684 75.292 18.1628V23.2368H76.937V18.7151C76.937 16.7994 78.0797 16.04 79.0666 16.04C80.2614 16.04 80.9712 16.8684 80.9712 18.1628V23.2368H82.6162V17.9902C82.6162 15.9192 81.4388 14.4695 79.4129 14.4695Z" fill="#2D3440"/>
<path d="M88.5049 21.8732L85.5612 14.6936H83.7432L87.6564 24.0479L87.6392 24.0824C87.3622 24.7899 87.0504 25.0488 86.2885 25.0488H84.2628V26.6883H86.2885C87.7776 26.6883 88.5741 26.0153 89.1282 24.5655L92.903 14.6936H91.2233L88.5049 21.8732Z" fill="#2D3440"/>
</g>
<defs>
<clipPath id="clip0">
<rect width="93" height="26.7107" fill="white"/>
</clipPath>
</defs>
</svg>
