<svg width="16" height="16" viewBox="0 0 16 16" fill="none" xmlns="http://www.w3.org/2000/svg">
<path fill-rule="evenodd" clip-rule="evenodd" d="M9.20837 0.875163C9.20837 0.506973 9.50685 0.208496 9.87504 0.208496H12.875C13.4497 0.208496 14.0008 0.436769 14.4071 0.843098C14.8134 1.24943 15.0417 1.80053 15.0417 2.37516V12.8752C15.0417 13.4498 14.8134 14.0009 14.4071 14.4072C14.0008 14.8136 13.4497 15.0418 12.875 15.0418H9.87504C9.50685 15.0418 9.20837 14.7434 9.20837 14.3752C9.20837 14.007 9.50685 13.7085 9.87504 13.7085H12.875C13.0961 13.7085 13.308 13.6207 13.4643 13.4644C13.6206 13.3081 13.7084 13.0962 13.7084 12.8752V2.37516C13.7084 2.15415 13.6206 1.94219 13.4643 1.78591C13.308 1.62963 13.0961 1.54183 12.875 1.54183H9.87504C9.50685 1.54183 9.20837 1.24335 9.20837 0.875163ZM5.65359 3.40376C5.91394 3.14341 6.33605 3.14341 6.5964 3.40376L10.3418 7.14919C10.4652 7.27018 10.5417 7.43874 10.5417 7.62516C10.5417 7.8116 10.4652 7.98016 10.3418 8.10115L6.5964 11.8466C6.33605 12.1069 5.91394 12.1069 5.65359 11.8466C5.39324 11.5862 5.39324 11.1641 5.65359 10.9038L8.26552 8.29183H0.875041C0.506851 8.29183 0.208374 7.99335 0.208374 7.62516C0.208374 7.25697 0.506851 6.9585 0.875041 6.9585H8.26552L5.65359 4.34657C5.39324 4.08622 5.39324 3.66411 5.65359 3.40376Z" fill="#2D3440"/>
</svg>
